<?xml version="1.0" standalone="no"?>
<svg xmlns="http://www.w3.org/2000/svg" viewBox="0 0 86 67" width="86" height="67"><g fill="#e14216" color="#e14216" transform="translate(27.556 0) scale(0.5740741) "><svg width="53.0" height="54.0" x="0.0" y="0.0" viewBox="0 0 53 54"><path fill="currentColor" fill-rule="evenodd" d="M20.729.716c5.69-1.335 11.613-.755 16.548 1.336.117.116.407.232.407.348 4.993 2.207 9.464 6.213 11.961 11.09.686 1.2 1.48 2.789 1.616 3.725.011.025.02.052.03.078.26.346.636 1.476.594 1.64l.043.132c.149.277.311.91.45 1.602 1.266 5.244.847 11.134-1.642 16.28.027-.02.051-.027.07.002-.057.29-.232.522-.406.87 0-.055.032-.185.076-.326-.209.444-.434.88-.67 1.308-.164.358-.332.711-.509 1.05 0 .35.174 0 .29 0-.29.698-1.277 1.917-1.22 1.917-.115.29-.348.29-.638.755-.523.87-1.51 2.206-2.496 3.02-.175.58-1.568 1.567-2.091 2.148-1.103.638-3.077 2.322-4.703 2.845-.349.116-.29.174-.58.348-4.704 2.265-10.743 3.136-16.491 1.916-5.749-1.161-10.916-4.412-14.284-8.361-1.045-1.22-2.149-2.497-2.845-3.832-.233-.465-.349-.407-.58-.871-.117-.29-.814-1.568-.988-1.8-.174-.813-.697-1.336-.813-2.09-.116-.232-.058.115-.116.058-.29-.871-1.742-5.052-1.452-6.91-.212-.319-.325-1.465-.254-2.592l-.001.022v.029c.003.267.217-1.335.15-1.61l-.01-.03c-.117-.116-.117.639-.175.174.058-.348.29-1.8.116-.87l.001-.008.016-.227c.078-.837.303-1.448.464-2.534l.042-.31c-.02-.02-.04.047-.06.148l.001-.01.07-.362c.335-1.642.926-3.62 1.858-5.591l.221-.455c1.22-2.555 3.02-4.936 4.703-6.736-.058.465-1.51 1.568-1.684 2.149C9.581 5.42 14.981 2.11 20.73.716zM40.787 48.01c-.459.272-.926.526-1.4.767a25.207 25.207 0 0 1-10.47 3.326c3.948-.058 7.316-1.51 10.335-3.193a29.018 29.018 0 0 0 1.535-.9zm-7.841 2.944c-.536.094-1.202.195-1.896.28-2.26.404-4.634.347-6.315.347 2.687.389 5.48.108 8.21-.627zM27.987 3.678c-.174.058-.29.058-.464.058h.232c-.058.058-.349.058-.639.058.058 0 .117-.058.117-.058h-.117s-.29-.058-.522 0c-.059.058-.175.058-.29.058v.058c-.756.058-1.162.058-1.743.174h-.116c-.058 0-.116.058-.232.058h-.174c.232-.116 0-.058-.116-.058a.276.276 0 0 0-.074.015l-.078.025.043-.011a.955.955 0 0 1 .08-.02l.087-.009c-.407.174-1.336.348-2.033.465-1.219.348-2.496.812-3.658 1.335h-.058c-.058.058-.174.058-.232.116.058 0 .116 0 0 .058-.174.058-.29.116-.29.174-.155.052-.353.146-.477.166l.186-.108c-.058 0-.116.059-.174.059 0-.007.007-.017.017-.029-.058.03-.116.067-.175.097a.519.519 0 0 1 .1-.01c-.522.232-.697.406-1.335.754l.083-.047.033-.01c-.233.139-.502.315-.809.529l-.236.167c-.117.116.406-.174.116 0-.523.29-.58.29-1.278.813.116-.174.697-.523.755-.697-1.451.987-2.613 2.207-3.948 3.716.058-.116.464-.638.29-.58-3.6 3.948-5.69 9.406-5.98 13.935-.117-.116 0-.813.057-1.335-.058.116-.116.522-.174.522-.116 1.394-.232 3.31 0 4.994 0 .116.058.232.058.406v-1.033c.003.03.012.104.058.104.044-.48.022-1.124.009-1.637-.003-.015-.005-.033-.009-.047.003-.014.004-.028.006-.043a14.41 14.41 0 0 1-.006-.363c0-.29.058-.232.058-.348 0-.581.349-2.149.233-1.51 0 .035-.004.068-.005.103l-.001-.002.039-.281a46.52 46.52 0 0 1 .41-2.384l.08-.397c.057.058.057-.117.115-.058.117-.523.059-.407.059-.755.29-.465.406-1.336.87-2.439.117-.058.117 0 .117.174-.175.407-.175.29-.29.697-.059 0-.117.058-.117.058-.116.348-.116.465-.232.697 0 .174.058 0 .116 0-.058.348-.174.58-.232.464-.058.233-.116.407-.116.523.058.058.116-.465.174-.29-.116.406-.116.522-.116.754-.116.407-.174.697-.29 1.162-.059.174 0 0 0 .232-.117.406-.117.174-.175.058-.058.465.058.523-.058.987-.058 0 0-.116-.058-.116-.058.29 0 .406-.058.639.058-.116.058-.116.116-.116-.058.754-.116.754-.116 1.51v-.002l-.002-.023c-.01-.05-.044-.108-.054-.028l-.003.051-.015-.04c-.005-.073.045-.2.066-.299l.008-.066c0-.349-.058.58-.116.232v.407c0 .29.116.174.116.348 0 .464.116 1.51 0 1.742-.058.29 0 .174-.058.232 0 1.452.29 2.961.755 4.878-.058.174-.116-.29-.174-.175-.117-.406-.233-.58-.29-.929.057-.116-.117-.929-.175-1.277 0 0 0 .174.058.406-.174-.232-.116-.464-.232-.929.058.233 0-.058.058-.116-.116-.174 0-.522-.116-.639.058-.116-.058-1.103-.058-1.625-.047 0-.097-.146-.176-.14-.008.5-.008 1 .005 1.492.062.266.287 1.845.287 2.132.116.406.522 2.09.639 2.787.464 1.336 1.16 3.078 1.858 4.354.116.117.174.233.232.349v.058c.058.059.116.174.174.232 0-.116-.058-.173.058-.058.116.116.174.232.232.232.058.175.233.407.233.524.174.173.116 0 .29.231.174.232.116.232.29.465-.232-.174-.464-.523-.813-.987 0 .058.058.116.117.174.058.117.058.117.058.174.406.697.929 1.277 1.742 2.148.083.042-.071-.184-.08-.229a40.61 40.61 0 0 1-.791-1.048c-.175-.232-.64-.871-.64-.871 0-.116-1.044-1.626-1.044-2.032.348.638.58 1.104.929 1.51l-.058.057c.348.465.87 1.22.929 1.452.174.174-.058-.116.116.058.116.232.116.232.406.64-.116-.175.871.812.813.928.116.116.116 0 .349.29.047.088.114.156.173.232-.23-.173-.115.001 0 .117l-.003-.004-.162-.154a9.386 9.386 0 0 1-.509-.554l-.172-.204c.171.261.27.44.73.858-.174-.058-.58-.581-.754-.639a17.732 17.732 0 0 0 2.148 1.974c-.348-.348-.755-.697-1.103-1.045-.086-.128-.077-.194-.113-.266.373.435.896.733 1.274 1.253.237.19.169.037.29.128-.316-.294-.46-.518-.928-.882-.175-.29.174.115.232.057-.083-.123-.226-.193-.405-.345.164.277-.466-.41-.524-.526-.058-.116.232.233.406.349-.697-.813-1.568-1.452-1.974-2.323.116.116.174.058.29.175.175.231.116.29.233.406.464.406.638.696.987.987 0 .058.058.058.116.174-.29-.116-.058 0 .116.175.406.406 1.452 1.393 1.684 1.567.929.639 1.626 1.336 2.264 1.684l-.058.058c.349.116.465.29.871.465h-.116c.987.522 1.452.87 2.323 1.161.522.522 1.858.696 2.496 1.103.349.059.697.232.871.174.059.058.697.175.523.232 1.277.29 4.471.814 6.097.639 0 .058.349 0 .58.058.14-.046.201-.053.043.064.069.013.074.053.074.053.406 0 .813-.059 1.277-.117.117 0 .232-.058.29-.058h.233c.29 0 .638-.058.929-.116.058-.058.116-.058.116-.116.323-.054.492-.055.561-.01.086-.022.26-.098.31-.048.058-.058.116-.058.174-.058.174-.058.348-.116.58-.175-.29.059-.754.233-.87.175.29-.058 1.858-.523 2.149-.523.347-.174 1.567-.58 2.322-.87 0-.059.058-.116.174-.116h.116c.058-.06.058-.06.116-.06.232-.115.406-.23.639-.347 0-.117.29-.174.58-.349.988-.58 2.09-1.22 2.962-1.8.29-.29.639-.522.987-.813l.058-.058h.058c.174-.116.29-.232.464-.348.29-.465 1.395-1.16 1.626-1.684.232-.29.174-.058.35-.29.52-.753.925-1.101 1.158-1.622-.115.154-.23.307-.347.46-.116.116-.174.058-.29.174-.129.13-.036.1.045.028-.523.673-1.297 1.396-2.077 2.12-.232.175-.812.756-.812.756-.175 0-1.51 1.22-1.917 1.277.58-.464 1.046-.697 1.393-1.103l.058.058c.466-.406 1.104-1.045 1.337-1.103.115-.174-.175.058 0-.116.173-.116.231-.116.58-.465-.175.174.696-.87.813-.87.116-.117 0-.117.232-.35.58-.463.813-1.16 1.393-1.683.233-.29-.058-.058.175-.407-.349.407-.523.523-.87 1.104-.234.174.115-.175.057-.233-.175.175-.233.407-.523.697 0 .04.125-.052.193-.133-.13.173-.356.447-.425.482-.116 0 .174-.29.29-.465a9.335 9.335 0 0 0-.387.454 2.58 2.58 0 0 1 .097-.164c.348-.406 1.22-1.51 1.335-1.8.523-.987 1.162-1.8 1.394-2.438l.058.058c.058-.349.174-.523.348-.93v.117c.407-1.045.697-1.568.871-2.439.465-.58.465-1.916.813-2.613 0-.348.174-.697.058-.87.058 0 .058-.698.175-.523.057-1.22.29-4.53-.117-6.097.058 0-.058-.349 0-.58-.058-.291-.116-.291-.173-.175.057-.174-.117-.697-.059-.87-.116-.117-.232-.64-.348-.93-.058-.29-.058-.464-.117-.755-.174-.232-.232-.697-.406-.929.116 0-.174-.406 0-.348-.268-.313-.502-1.138-.833-1.872l.001.004.02.068a4.596 4.596 0 0 1-.144-.315l-.032-.08a3.946 3.946 0 0 0-.173-.302c.073.037.105.13.173.302l.08.16.073.158c-.052-.197-.12-.376-.326-.736.232.29-.116-.29 0-.232-.174-.117-.232-.29-.232-.117-.117-.174 0-.116-.175-.406-.115-.116-.058.058-.058.174-.116-.348-.29-.58-.116-.464-.174-.407-.29-.233-.406-.523 0-.174 0-.116.174.174-.232-.522-.349-.638-.755-1.219.29.29-.29-.348 0-.116-.174-.174-.58-.871-.523-.697-1.044-1.452-1.974-2.264-3.193-3.542-.232-.116-.58-.464-.93-.813-.29-.232-.58-.464-.87-.638l-.116-.117c-2.73-1.858-5.806-3.135-8.652-3.658.174-.058.814.116 1.336.233-.117-.058-.522-.175-.522-.233-.175-.058-.35-.058-.524-.116h-.116c-.174-.058-.231-.116-.231-.116-.175-.058-.35-.058-.581-.116 0 0 .057.058.174.058-.058 0-.64-.058-.117.058-.58-.116-1.045-.174-1.393-.29h-.232c-.116 0-.058.058-.233.058-.406 0-1.567-.232-1.858-.058 0-.058-.058-.116-.232-.116zm9.116 44.07c.175 0-.29.117-.174.174-.406.175-.58.29-.929.407-.174 0-.929.29-1.277.349 0 .058.174 0 .406-.058-.232.232-.522.173-.929.348.232-.116-.058 0-.116-.058-.174.116-.523.058-.639.174-.116-.058-1.103.116-1.626.233.059.057-.232.174-.058.232-.406.058-.754.058-.987.174-.348 0-.696 0-.755-.059-.929.117-2.496.059-4.47-.173 0-.058-.117-.058-.117-.117-.522 0-.406 0-.754.059-.523-.233-1.394-.29-2.555-.581-.116-.116-.058-.116.116-.116.406.116.348.057.755.174.058.058.116.058.116.116.406.116.522.058.755.174.174-.058 0-.058 0-.116.348.058.638.116.522.174a2 2 0 0 0 .523.059c.058-.059-.465-.059-.29-.117.406.117.522.058.754.058.407.059.697.116 1.162.175.174 0-.058-.059.232-.059.464.059.232.117.116.175.465 0 .523-.116.987-.058 0 0-.116 0-.116.058.348.058.406 0 .639 0-.116-.058-.116-.058-.116-.116.754-.059.754.058 1.51-.059l-.034.004-.016.005c-.04.014-.07.04-.003.047l.052.003c-.058.058-.29 0-.406 0-.349.058.58.058.232.116h.406c.233-.058.117-.116.29-.175.465-.057 1.51-.29 1.743-.174.29 0 .174-.058.29-.116 1.452-.174 2.903-.638 4.761-1.335zm-23.632-2.38c.464.348.87.697 1.103.929.116.059.174.059.232.059.175.115.407.231.175.173.522.29 1.451.988 1.916 1.162.522.407 2.206 1.103 3.251 1.568.813.173 1.336.464 2.149.464-.116-.116-.349-.058-.639-.174-.058 0 .058-.058 0-.058-.755-.117-4.877-1.917-5.69-2.555a22.78 22.78 0 0 1-1.742-1.22c-.058 0-.058.059 0 .116a5.3 5.3 0 0 1-.755-.464zm13.471 3.484c.465 0 0 0 .232.058.407-.058.813.058 1.162.058-.117.058-.29.058-.407.116-.348-.058-.232-.116-.639-.058 0-.058.117-.058.29-.058-.115-.058-.522 0-.522.058a3.473 3.473 0 0 0-.392-.064c.146-.056-.004-.11.276-.11zM3.831 22.787l-.094.444c-.404 2.14-.242 4.807-.079 6.866-.174-.406-.232-1.336-.29-1.858v.013l.034.495a25.309 25.309 0 0 0 2.493 9.03l.26.507c-.407-.406-.93-1.568-1.278-2.497-.232-.638-.464-1.335-.696-1.974-.025-.012-.031.005-.03.036.77 2.5 1.934 4.876 3.455 6.99 1.742 2.323 3.6 3.948 5.807 5.574.58.465 1.161.93 1.858 1.336.87.522 1.742.812 2.613 1.22l.23.095c-1.985-.931-3.752-2.053-4.933-3.115a21.847 21.847 0 0 1-4.24-4.471c-.115-.058-.115-.175-.173-.29-.116-.233-.465-.639-.639-.93-.058-.058-.058-.116-.116-.174a23.495 23.495 0 0 1-2.265-3.89c-.522-1.103-1.219-3.136-1.567-4.53v.117c-.064-.064-.059-.133-.06-.236-.175-.362-.637-3.483-.58-4.584-.057-1.51.117-3.019.291-4.18l-.001.006zM24.736 48.62c.638.058 1.103.116 1.741.232-.057 0-.115 0-.115.058 0 .013.01.021.024.03-.225-.015-.487-.03-.895-.088-.059-.058.174-.058.116-.116h-.233c-.116-.058-.116 0-.116.058-.464-.058-.638-.116-.522-.174zm-2.613-.755c1.219.29 1.219.348 2.438.58.175.233-.522.058-.638.058-.755-.174-1.22-.29-1.916-.522.174 0 .174 0 .116-.116zm-6.33-3.077c.465.406.756.406 1.162.697-.29-.117-.058 0 .058.115 0-.058.116 0 .29.059.523.464 1.22.58 1.22.754.29.058.697.29 1.22.523 0 .058-.291-.116-.291-.058s.522.232.522.174c.116.058.116.116.175.058.348.116.406.232.754.29l-.058.117c.116.057.116-.059.116-.059.29.059.117.116.29.174.117.059-.057-.058 0-.058.233.117.465.174.756.233.116.174-.117.116-.175.174-1.916-.639-3.716-1.51-5.516-2.671.058-.116-.638-.406-.522-.522zm25.316.987c-.87.638-1.799 1.103-3.134 1.741.522-.406 2.032-1.103 2.903-1.683.058 0 .058.058.231-.058zm4.414-4.355a.497.497 0 0 0-.014.102c-.486.612-.937 1.242-1.554 1.64.116-.116.116-.175.174-.29.174-.175.233-.117.348-.233.35-.523.64-.697.871-1.104.059 0 .116 0 .175-.115zM6.445 34.336c.29.58.813 2.148 1.278 3.077 0 .043-.007.069-.01.091-.437-.888-.826-1.845-1.268-3.168zm.432-13.364l.033.009c-.116.697-.174 1.103-.407 1.742 0-.058 0-.116-.058-.116 0 0-.058.174-.058.29 0 .174.058.058.058.348-.058.407-.058-.058-.116.175.058.464-.116.813-.174 1.161 0-.116-.058-.29-.058-.406.058-.349.116-.233.116-.64v.291c.058-.116.058-.464 0-.522.174-.465.116-.755.348-1.51.117-.058.058.174.117.116v-.232c.058-.116 0-.116-.059-.116.117-.407.175-.64.29-.581zm.904-2.546c0 .174 0 .232.116.174-.407 1.103-.523 1.103-.871 2.323-.232.174.058-.523 0-.639.29-.755.406-1.22.755-1.858zm3.911-5.777l.037.029c-.464.406-.464.639-.813 1.045l.001-.002.035-.056c.11-.18.026-.023-.113.087l-.039.029c0 .058-.058.116-.116.29-.464.523-.697 1.162-.87 1.162-.175.29-.407.696-.698 1.16 0-.057.175-.29.116-.29-.058-.057-.29.465-.232.465-.116.116-.174.116-.116.174-.174.29-.29.349-.406.697l-.058-.058c-.058.116.058.058.058.116-.116.232-.116.058-.233.232-.058.175.058 0 .058.058-.116.175-.174.407-.29.64-.174.115-.116-.117-.174-.175.87-1.858 1.916-3.542 3.31-5.168.116.058.464-.58.58-.406zM26.774.883l-.529.008c-4.587.058-9.232 1.567-12.89 4.064a31.022 31.022 0 0 1 3.75-1.886c-.052.033-.092.064-.092.086.232-.116.116.058 0 .116.232-.116.58-.232.58-.29-.268.107-.328.063-.2-.036-.096.04-.193.084-.289.124.084-.053.208-.11.315-.146-.013.009-.015.014-.026.023a21.343 21.343 0 0 1 2.175-.778c.058.058-.174.174-.58.29.057.058.406-.058.812-.174-1.684.639-3.194 1.045-5.052 2.148-.116-.058-.696.349-.348.059-.523.348-1.916 1.451-1.916 1.219-.871.697-2.497 2.032-4.007 3.6-1.51 1.568-2.787 3.426-3.367 4.645.929-1.277 1.742-2.729 3.019-4.18.523-.64 1.336-1.278 2.032-1.859 3.426-3.077 8.304-5.69 13.297-6.155.101-.1.298-.143.503-.173l.11-.015-.425.054c-.187.026-.373.054-.56.086l-.557.107c.058-.059.29-.117.29-.175-.174-.058-.929.116-.987.058-.406.175.523-.058.349.117-.813.174-1.336.232-2.207.522.465-.232.639-.406 1.045-.58C26.755.535 33.663 1.03 39.752 4.707c2.076 1.071 4.179 2.546 5.887 4.253.091.09.176.184.266.275-.046-.091.088-.01.256.074-.755-.813-.348-.232-.87-.697-1.8-1.858-4.065-3.774-6.445-4.82-3.543-1.857-8.014-3.019-12.6-2.902zM46.603 9.97a25.221 25.221 0 0 1 2.3 2.992c-.67-1.115-1.442-2.177-2.3-2.992zM33.329 1.878c.175-.116 1.103.174 1.917.406 0 .058-.06 0-.175 0-.058 0 .058.058.116.116-.522-.058-1.161-.406-1.858-.522zm-5.225-.407a21.87 21.87 0 0 0-3.611.06c.406.013-.45.118-.396.172a34.43 34.43 0 0 1 2.555-.116c-.523-.058-1.336 0-1.917.058.581-.29 2.381-.116 3.369-.174z"></path></svg></g><line x1="28.467814814814815" y1="37" x2="57.068185185185186" y2="37" stroke="#4d61b9" stroke-linecap="round"></line><path fill="#4d61b9" fill-rule="nonzero" d="M5.98 17.26L5.98 17.26Q4.63 17.26 3.53 16.80Q2.42 16.34 1.64 15.52Q0.86 14.69 0.43 13.56Q0 12.43 0 11.09L0 11.09Q0 9.74 0.43 8.60Q0.86 7.46 1.64 6.62Q2.42 5.78 3.53 5.30Q4.63 4.82 5.98 4.82L5.98 4.82Q7.32 4.82 8.41 5.29Q9.50 5.76 10.28 6.59Q11.06 7.42 11.50 8.56Q11.93 9.70 11.93 11.02L11.93 11.02Q11.93 12.36 11.50 13.51Q11.06 14.66 10.28 15.49Q9.50 16.32 8.41 16.79Q7.32 17.26 5.98 17.26ZM5.98 6.07L5.98 6.07Q4.92 6.07 4.08 6.43Q3.24 6.79 2.63 7.44Q2.02 8.09 1.69 9.00Q1.37 9.91 1.37 11.02L1.37 11.02Q1.37 12.14 1.69 13.07Q2.02 13.99 2.63 14.64Q3.24 15.29 4.08 15.65Q4.92 16.01 5.98 16.01L5.98 16.01Q7.01 16.01 7.86 15.64Q8.71 15.26 9.31 14.60Q9.91 13.94 10.24 13.02Q10.56 12.10 10.56 10.97L10.56 10.97Q10.56 9.86 10.24 8.96Q9.91 8.06 9.31 7.42Q8.71 6.77 7.86 6.42Q7.01 6.07 5.98 6.07ZM13.97 15.86L14.64 14.86Q15.26 15.26 16.16 15.64Q17.06 16.01 18.22 16.01L18.22 16.01Q18.72 16.01 19.19 15.90Q19.66 15.79 20.02 15.56Q20.38 15.34 20.58 14.95Q20.78 14.57 20.78 14.02L20.78 14.02Q20.78 13.18 20.33 12.70Q19.87 12.22 19.19 11.89Q18.50 11.57 17.71 11.30Q16.92 11.04 16.24 10.62Q15.55 10.20 15.10 9.53Q14.64 8.86 14.64 7.73L14.64 7.73Q14.64 7.15 14.88 6.62Q15.12 6.10 15.58 5.70Q16.03 5.30 16.68 5.06Q17.33 4.82 18.14 4.82L18.14 4.82Q18.86 4.82 19.54 4.86Q20.21 4.90 21.02 4.97L21.02 4.97L21.02 6.22Q19.15 6.07 17.98 6.07L17.98 6.07Q17.04 6.07 16.54 6.58Q16.03 7.08 16.03 7.73L16.03 7.73Q16.03 8.57 16.49 9.04Q16.94 9.50 17.63 9.83Q18.31 10.15 19.10 10.43Q19.90 10.70 20.58 11.12Q21.26 11.54 21.72 12.22Q22.18 12.89 22.18 14.02L22.18 14.02Q22.18 14.90 21.83 15.52Q21.48 16.13 20.89 16.51Q20.30 16.90 19.56 17.08Q18.82 17.26 18.02 17.26L18.02 17.26Q16.82 17.26 15.77 16.85Q14.71 16.44 13.97 15.86L13.97 15.86ZM33.82 17.02L32.50 17.02L32.50 8.95Q32.50 7.44 31.86 6.76Q31.22 6.07 30.05 6.07L30.05 6.07Q29.57 6.07 29.06 6.23Q28.56 6.38 28.09 6.70Q27.62 7.01 27.24 7.44Q26.86 7.87 26.62 8.42L26.62 8.42L26.62 8.54L26.62 17.02L25.30 17.02L25.30 8.54Q25.30 7.58 25.06 6.89Q24.82 6.19 24.34 5.69L24.34 5.69L25.15 4.90Q25.70 5.30 26.00 5.84Q26.30 6.38 26.45 7.01L26.45 7.01Q27.10 5.90 28.07 5.36Q29.04 4.82 30.19 4.82L30.19 4.82Q31.37 4.82 32.26 5.38Q33.14 5.93 33.55 7.06L33.55 7.06Q34.25 5.90 35.26 5.36Q36.26 4.82 37.25 4.82L37.25 4.82Q38.98 4.82 40.02 5.83Q41.06 6.84 41.06 8.69L41.06 8.69Q41.06 9.55 41.03 10.26Q40.99 10.97 40.96 11.59Q40.92 12.22 40.88 12.79Q40.85 13.37 40.85 13.94L40.85 13.94Q40.85 14.74 40.97 15.46Q41.09 16.18 41.42 17.02L41.42 17.02L40.15 17.02Q39.77 16.30 39.65 15.40Q39.53 14.50 39.53 13.80L39.53 13.80Q39.53 13.22 39.55 12.72Q39.58 12.22 39.61 11.65Q39.65 11.09 39.68 10.44Q39.72 9.79 39.72 8.95L39.72 8.95Q39.72 7.46 39.11 6.77Q38.50 6.07 37.27 6.07L37.27 6.07Q35.06 6.07 33.82 8.45L33.82 8.45L33.82 8.69L33.82 17.02ZM47.54 17.26L47.54 17.26Q46.73 17.26 46.02 17.04Q45.31 16.82 44.80 16.39Q44.28 15.96 43.99 15.31Q43.70 14.66 43.70 13.82L43.70 13.82Q43.70 12.82 44.15 12.14Q44.59 11.47 45.31 11.05Q46.03 10.63 46.93 10.46Q47.83 10.30 48.77 10.30L48.77 10.30L51.10 10.30L51.10 8.95Q51.10 7.46 50.50 6.77Q49.90 6.07 48.60 6.07L48.60 6.07Q47.64 6.07 46.66 6.48Q45.67 6.89 45.05 7.37L45.05 7.37L44.40 6.36Q45.10 5.74 46.24 5.28Q47.38 4.82 48.60 4.82L48.60 4.82Q50.62 4.82 51.52 5.84Q52.42 6.86 52.42 8.69L52.42 8.69L52.42 13.56Q52.42 15.41 53.35 16.42L53.35 16.42L52.54 17.21Q52.03 16.82 51.74 16.33Q51.46 15.84 51.29 15.29L51.29 15.29Q50.83 16.20 49.90 16.73Q48.96 17.26 47.54 17.26ZM47.54 16.01L47.54 16.01Q48.26 16.01 48.89 15.80Q49.51 15.60 50.00 15.22Q50.50 14.83 50.78 14.26Q51.07 13.68 51.10 12.94L51.10 12.94L51.10 11.52L48.77 11.52Q48.10 11.52 47.44 11.60Q46.78 11.69 46.25 11.94Q45.72 12.19 45.40 12.65Q45.07 13.10 45.07 13.82L45.07 13.82Q45.07 15.02 45.72 15.52Q46.37 16.01 47.54 16.01ZM66.36 17.02L65.09 17.02Q64.70 16.30 64.58 15.40Q64.46 14.50 64.46 13.80L64.46 13.80Q64.46 13.22 64.49 12.72Q64.51 12.22 64.55 11.65Q64.58 11.09 64.62 10.44Q64.66 9.79 64.66 8.95L64.66 8.95Q64.66 7.46 63.98 6.77Q63.31 6.07 61.94 6.07L61.94 6.07Q60.65 6.07 59.76 6.71Q58.87 7.34 58.03 8.50L58.03 8.50L58.03 8.54L58.03 17.02L56.71 17.02L56.71 8.54Q56.71 7.58 56.47 6.89Q56.23 6.19 55.75 5.69L55.75 5.69L56.57 4.90Q57.14 5.30 57.46 5.89Q57.77 6.48 57.89 7.10L57.89 7.10Q58.68 5.95 59.70 5.39Q60.72 4.82 61.94 4.82L61.94 4.82Q64.06 4.82 65.02 5.83Q65.98 6.84 65.98 8.69L65.98 8.69Q65.98 9.55 65.94 10.26Q65.90 10.97 65.87 11.59Q65.83 12.22 65.81 12.79Q65.78 13.37 65.78 13.94L65.78 13.94Q65.78 14.74 65.90 15.46Q66.02 16.18 66.36 17.02L66.36 17.02ZM69 5.69L69.82 4.90Q70.27 5.23 70.55 5.65Q70.82 6.07 70.99 6.55Q71.16 7.03 71.22 7.54Q71.28 8.04 71.28 8.54L71.28 8.54L71.28 17.02L69.96 17.02L69.96 8.54Q69.96 7.58 69.72 6.89Q69.48 6.19 69 5.69L69 5.69ZM69.31 1.13L69.31 1.13Q69.31 0.65 69.64 0.32Q69.96 0 70.42 0L70.42 0Q70.90 0 71.22 0.32Q71.54 0.65 71.54 1.13L71.54 1.13Q71.54 1.58 71.22 1.91Q70.90 2.23 70.42 2.23L70.42 2.23Q69.96 2.23 69.64 1.91Q69.31 1.58 69.31 1.13ZM80.42 4.82L80.42 4.82Q81.65 4.82 82.60 5.30Q83.54 5.78 84.20 6.62Q84.86 7.46 85.20 8.58Q85.54 9.70 85.54 10.99L85.54 10.99Q85.54 12.34 85.14 13.48Q84.74 14.62 84.01 15.46Q83.28 16.30 82.25 16.78Q81.22 17.26 79.94 17.26L79.94 17.26Q78.94 17.26 78.16 17.18Q77.38 17.11 76.82 17.04L76.82 17.04L76.82 23.02L75.50 23.02L75.50 8.54Q75.50 7.58 75.26 6.89Q75.02 6.19 74.54 5.69L74.54 5.69L75.36 4.90Q75.89 5.30 76.19 5.81Q76.49 6.31 76.63 6.91L76.63 6.91Q77.14 5.93 78.13 5.38Q79.13 4.82 80.42 4.82ZM80.42 6.07L80.42 6.07Q79.82 6.07 79.22 6.26Q78.62 6.46 78.12 6.84Q77.62 7.22 77.26 7.80Q76.90 8.38 76.82 9.14L76.82 9.14L76.82 15.79Q77.26 15.84 78.10 15.92Q78.94 16.01 79.92 16.01L79.92 16.01Q80.88 16.01 81.66 15.65Q82.44 15.29 83.00 14.64Q83.57 13.99 83.87 13.08Q84.17 12.17 84.17 11.06L84.17 11.06Q84.17 10.10 83.93 9.19Q83.69 8.28 83.22 7.60Q82.75 6.91 82.06 6.49Q81.36 6.07 80.42 6.07Z" transform="translate(0, 43)"></path></svg>